<svg xmlns="http://www.w3.org/2000/svg" width="1280" height="720" viewBox="0 0 1280 720" role="img" aria-labelledby="title desc">
  <title id="title">Reverie architecture diagram</title>
  <desc id="desc">Browser to Alibaba Cloud ECS, FastAPI, SQLite memory engine, and Qwen Cloud model routing.</desc>
  <defs>
    <linearGradient id="brand" x1="0" y1="0" x2="1" y2="0">
      <stop offset="0" stop-color="#f5476b"/>
      <stop offset="0.58" stop-color="#ff6f5e"/>
      <stop offset="1" stop-color="#f2a65a"/>
    </linearGradient>
    <filter id="glow" x="-40%" y="-40%" width="180%" height="180%">
      <feGaussianBlur stdDeviation="5" result="blur"/>
      <feMerge>
        <feMergeNode in="blur"/>
        <feMergeNode in="SourceGraphic"/>
      </feMerge>
    </filter>
    <style>
      .bg { fill: #050408; }
      .panel { fill: #150d12; stroke: #2c1e26; stroke-width: 1; }
      .featured { fill: #1e1419; stroke: #f5476b; stroke-opacity: .55; stroke-width: 1; }
      .title { fill: #f3ece3; font: 700 30px Inter, ui-sans-serif, system-ui; }
      .label { fill: #f5476b; font: 700 13px "JetBrains Mono", ui-monospace, monospace; letter-spacing: 3px; }
      .body { fill: #ab9ca5; font: 15px Inter, ui-sans-serif, system-ui; }
      .mono { fill: #f3ece3; font: 13px "JetBrains Mono", ui-monospace, monospace; }
      .line { stroke: url(#brand); stroke-width: 2; fill: none; marker-end: url(#arrow); }
      .soft { stroke: #2c1e26; stroke-width: 1; fill: none; }
    </style>
    <marker id="arrow" viewBox="0 0 10 10" refX="8" refY="5" markerWidth="6" markerHeight="6" orient="auto-start-reverse">
      <path d="M 0 0 L 10 5 L 0 10 z" fill="#f2a65a"/>
    </marker>
  </defs>
  <rect class="bg" width="1280" height="720"/>
  <text x="72" y="72" class="label">REVERIE ARCHITECTURE</text>
  <text x="72" y="112" class="title">Visible memory engine on Qwen Cloud</text>

  <rect x="72" y="176" width="220" height="150" rx="8" class="panel"/>
  <text x="96" y="214" class="label">BROWSER</text>
  <text x="96" y="252" class="mono">Next.js UI</text>
  <text x="96" y="282" class="body">Session, Mind, Dream,</text>
  <text x="96" y="306" class="body">Evals, Architecture</text>

  <rect x="390" y="120" width="500" height="430" rx="10" class="panel"/>
  <text x="420" y="158" class="label">ALIBABA CLOUD ECS</text>

  <rect x="426" y="198" width="160" height="96" rx="8" class="panel"/>
  <text x="450" y="235" class="mono">Nginx</text>
  <text x="450" y="264" class="body">SSE passthrough</text>

  <rect x="662" y="198" width="180" height="96" rx="8" class="panel"/>
  <text x="686" y="235" class="mono">Next.js server</text>
  <text x="686" y="264" class="body">App Router</text>

  <rect x="426" y="350" width="190" height="116" rx="8" class="featured" filter="url(#glow)"/>
  <text x="450" y="388" class="mono">FastAPI</text>
  <text x="450" y="418" class="body">chat, observer,</text>
  <text x="450" y="442" class="body">dream, evals</text>

  <rect x="668" y="344" width="174" height="58" rx="8" class="panel"/>
  <text x="690" y="379" class="mono">Dream cycle</text>
  <rect x="668" y="424" width="174" height="58" rx="8" class="panel"/>
  <text x="690" y="459" class="mono">Budgeted recall</text>

  <rect x="506" y="590" width="260" height="72" rx="8" class="panel"/>
  <text x="530" y="626" class="mono">SQLite memory ledger</text>
  <text x="530" y="650" class="body">engrams, vectors, sources, events</text>

  <rect x="990" y="176" width="220" height="326" rx="10" class="panel"/>
  <text x="1018" y="214" class="label">QWEN CLOUD</text>
  <text x="1018" y="260" class="mono">qwen-flash</text>
  <text x="1018" y="284" class="body">observer</text>
  <text x="1018" y="326" class="mono">qwen-plus</text>
  <text x="1018" y="350" class="body">assistant</text>
  <text x="1018" y="392" class="mono">qwen-max</text>
  <text x="1018" y="416" class="body">dreams and judges</text>
  <text x="1018" y="458" class="mono">text-embedding-v4</text>
  <text x="1018" y="482" class="body">retrieval vectors</text>

  <path class="line" d="M292 250 C330 250 352 246 390 246"/>
  <path class="line" d="M586 246 C612 246 636 246 662 246"/>
  <path class="line" d="M506 294 C506 318 506 328 506 350"/>
  <path class="line" d="M616 408 C640 394 646 382 668 374"/>
  <path class="line" d="M616 418 C642 432 646 446 668 454"/>
  <path class="line" d="M520 466 C548 526 584 554 626 590"/>
  <path class="line" d="M842 374 C902 340 930 308 990 296"/>
  <path class="line" d="M842 454 C914 454 932 446 990 432"/>
</svg>
